<?xml version="1.0" encoding="utf-8"?>
<!-- Generator: Adobe Illustrator 23.1.0, SVG Export Plug-In . SVG Version: 6.00 Build 0)  -->
<svg version="1.1" id="Capa_1" xmlns="http://www.w3.org/2000/svg" xmlns:xlink="http://www.w3.org/1999/xlink" x="0px" y="0px"
	 viewBox="0 0 54 72" style="enable-background:new 0 0 54 72;" xml:space="preserve">
<style type="text/css">
	.st0{fill:#6E358B;}
	.st1{fill:#FFEC00;}
	.st2{fill:#008D3F;}
	.st3{fill:#E20613;}
	.st4{fill:#E95A0C;}
	.st5{fill:#0056A3;}
	.st6{fill:#FFFFFF;}
</style>
<g>
	<g>
		<g>
			<path class="st0" d="M19.2,34.4c8.7,2.1,17.2,4.1,25.9,5.7c-1.3,1.8-2.8,3.2-4.3,4.5c-1.6,1.3-3.3,2.4-5.3,3.3
				c2.6,4,5.2,8,7.8,12c2.6,4,7.8,12.1,7.8,12.1l-9.6,0c0,0-8.9-13.9-13.1-20.5c-2.9-4.6-5.7-9.2-8-14.2
				C20,36.4,19.6,35.5,19.2,34.4z"/>
			<path class="st1" d="M0.2,9.7c0-3.2,0-6.5,0-9.7C0.5,0,15.7,0,23,0c0.2,0,0.4,0,0.6,0.1c0.2,0.1,0.3,0.2,0.4,0.4
				c2.7,4.6,5.1,9.3,7.1,14.2c0.1,0.2,0.1,0.4,0.2,0.7c-0.2-0.1-0.3-0.1-0.4-0.1c-3.7-1.7-7.6-2.7-11.6-3.5c-5.4-1-10.8-1.7-16.3-2
				C2.2,9.8,1.2,9.7,0.2,9.7z"/>
			<path class="st2" d="M0.2,40.5c0-9.2,0-18.5,0-27.8c6.4,0.4,12.9,1,19.2,2.2c-0.1,0.2-0.2,0.4-0.3,0.4c-3.9,3-7,6.6-9.8,10.5
				c-3.2,4.3-5.9,8.9-8.4,13.6C0.7,39.8,0.4,40.3,0.2,40.5z"/>
			<path class="st3" d="M47.3,36.6l-14.4-2.5c0,0,2.9-3.1,7.7-9.8s7.2-10.1,7.2-10.1s3.4,6.2,2.4,13.1S47.3,36.6,47.3,36.6z"/>
			<path class="st4" d="M27.3,0C35,0.5,42.3,5.1,46.1,11.1c-3,4.5-6,8.5-9.2,13C35.2,15.4,31.5,7.5,27.3,0z"/>
			<path class="st5" d="M14.9,72H0.2V47.4c0,0,2.8-5.8,6.1-11.6s7.4-10.9,7.4-10.9s0.3,5.3,2.9,11.8c2.8,7.1,9.6,17.5,14.6,25.3
				c3.7,5.7,6.5,10.1,6.5,10.1l-4.8,0L14.9,44.6V72z"/>
			<path d="M38.4,0c4.8,2.6,8.7,6.4,11.4,11h3.8V0H38.4z"/>
			<g>
				<path class="st6" d="M52.1,33.6c-1.4,4.2-3.7,7.9-6.7,11h8.2v-11H52.1z"/>
				<path d="M53.6,44.8h-8.2c-0.1,0-0.2,0-0.2-0.1c0-0.1,0-0.2,0-0.2c3-3.1,5.3-6.9,6.7-10.9c0-0.1,0.1-0.1,0.2-0.1h1.5
					c0.1,0,0.2,0.1,0.2,0.2v11C53.8,44.7,53.7,44.8,53.6,44.8z M45.8,44.4h7.5V33.8h-1.1C50.9,37.7,48.7,41.4,45.8,44.4z"/>
			</g>
		</g>
	</g>
</g>
<g>
	<path class="st6" d="M-142.4-52.6v-23.3h16v3.9h-11.3v5.5h9.7v3.9h-9.7v9.9H-142.4z"/>
	<path class="st6" d="M-123.6-61.2c0-1.5,0.4-2.9,1.1-4.3c0.7-1.4,1.8-2.4,3.1-3.2c1.3-0.7,2.8-1.1,4.5-1.1c2.6,0,4.6,0.8,6.3,2.5
		c1.6,1.7,2.4,3.8,2.4,6.3c0,2.6-0.8,4.7-2.5,6.3c-1.6,1.7-3.7,2.5-6.2,2.5c-1.5,0-3-0.4-4.4-1c-1.4-0.7-2.5-1.7-3.2-3.1
		C-123.3-57.6-123.6-59.3-123.6-61.2z M-119.1-61c0,1.7,0.4,3,1.2,3.8c0.8,0.9,1.8,1.3,2.9,1.3s2.1-0.4,2.9-1.3
		c0.8-0.9,1.2-2.2,1.2-3.9c0-1.7-0.4-2.9-1.2-3.8c-0.8-0.9-1.8-1.3-2.9-1.3s-2.1,0.4-2.9,1.3C-118.7-63.9-119.1-62.7-119.1-61z"/>
	<path class="st6" d="M-95-69.4v3.6h-3v6.8c0,1.4,0,2.2,0.1,2.4c0.1,0.2,0.2,0.4,0.4,0.6c0.2,0.1,0.5,0.2,0.8,0.2
		c0.4,0,1-0.1,1.8-0.4l0.4,3.5c-1,0.4-2.2,0.7-3.5,0.7c-0.8,0-1.5-0.1-2.2-0.4c-0.6-0.3-1.1-0.6-1.4-1c-0.3-0.4-0.5-1-0.6-1.7
		c-0.1-0.5-0.1-1.6-0.1-3.1v-7.4h-2v-3.6h2v-3.4l4.5-2.6v6H-95z"/>
	<path class="st6" d="M-92.9-61.2c0-1.5,0.4-2.9,1.1-4.3c0.7-1.4,1.8-2.4,3.1-3.2c1.3-0.7,2.8-1.1,4.5-1.1c2.6,0,4.6,0.8,6.3,2.5
		s2.4,3.8,2.4,6.3c0,2.6-0.8,4.7-2.5,6.3c-1.6,1.7-3.7,2.5-6.2,2.5c-1.5,0-3-0.4-4.4-1c-1.4-0.7-2.5-1.7-3.2-3.1
		C-92.6-57.6-92.9-59.3-92.9-61.2z M-88.4-61c0,1.7,0.4,3,1.2,3.8c0.8,0.9,1.8,1.3,2.9,1.3s2.1-0.4,2.9-1.3c0.8-0.9,1.2-2.2,1.2-3.9
		c0-1.7-0.4-2.9-1.2-3.8c-0.8-0.9-1.8-1.3-2.9-1.3s-2.1,0.4-2.9,1.3C-88-63.9-88.4-62.7-88.4-61z"/>
	<path class="st6" d="M-73.6-57.4l4.5-0.7c0.2,0.9,0.6,1.5,1.2,2c0.6,0.5,1.4,0.7,2.4,0.7c1.2,0,2-0.2,2.6-0.6
		c0.4-0.3,0.6-0.7,0.6-1.2c0-0.3-0.1-0.6-0.3-0.8c-0.2-0.2-0.7-0.4-1.5-0.6c-3.6-0.8-5.9-1.5-6.8-2.2c-1.3-0.9-2-2.2-2-3.8
		c0-1.5,0.6-2.7,1.7-3.7s2.9-1.5,5.4-1.5c2.3,0,4,0.4,5.1,1.1c1.1,0.8,1.9,1.9,2.3,3.3l-4.2,0.8c-0.2-0.7-0.5-1.2-1-1.5
		c-0.5-0.3-1.2-0.5-2.2-0.5c-1.2,0-2,0.2-2.5,0.5c-0.3,0.2-0.5,0.5-0.5,0.9c0,0.3,0.1,0.6,0.4,0.8c0.4,0.3,1.8,0.7,4.2,1.3
		c2.4,0.5,4,1.2,5,2c0.9,0.8,1.4,1.9,1.4,3.3c0,1.5-0.6,2.9-1.9,4c-1.3,1.1-3.2,1.7-5.7,1.7c-2.3,0-4.1-0.5-5.5-1.4
		C-72.3-54.5-73.2-55.8-73.6-57.4z"/>
	<path class="st6" d="M-44.9-52.6v-23.3h9.9c2.5,0,4.3,0.2,5.4,0.6c1.1,0.4,2,1.2,2.7,2.2c0.7,1.1,1,2.3,1,3.7
		c0,1.7-0.5,3.2-1.5,4.3c-1,1.1-2.6,1.9-4.6,2.2c1,0.6,1.9,1.2,2.5,2c0.7,0.7,1.6,2,2.7,3.8l2.8,4.5h-5.6l-3.4-5.1
		c-1.2-1.8-2-3-2.5-3.4c-0.4-0.5-0.9-0.8-1.4-1c-0.5-0.2-1.3-0.3-2.4-0.3h-1v9.7H-44.9z M-40.2-66h3.5c2.3,0,3.7-0.1,4.2-0.3
		c0.6-0.2,1-0.5,1.3-1c0.3-0.5,0.5-1,0.5-1.7c0-0.8-0.2-1.4-0.6-1.9c-0.4-0.5-1-0.8-1.8-0.9c-0.4-0.1-1.5-0.1-3.4-0.1h-3.7V-66z"/>
	<path class="st6" d="M-18.1-64.3l-4-0.7c0.5-1.6,1.2-2.8,2.4-3.6c1.1-0.8,2.8-1.2,5-1.2c2,0,3.5,0.2,4.4,0.7c1,0.5,1.7,1.1,2.1,1.8
		c0.4,0.7,0.6,2.1,0.6,4l0,5.2c0,1.5,0.1,2.6,0.2,3.3c0.1,0.7,0.4,1.5,0.8,2.3h-4.4c-0.1-0.3-0.3-0.7-0.4-1.3
		c-0.1-0.3-0.1-0.4-0.2-0.5c-0.8,0.7-1.6,1.3-2.4,1.7c-0.9,0.4-1.8,0.6-2.8,0.6c-1.7,0-3.1-0.5-4.1-1.4c-1-0.9-1.5-2.1-1.5-3.6
		c0-1,0.2-1.8,0.7-2.5c0.5-0.7,1.1-1.3,1.9-1.7c0.8-0.4,2-0.7,3.5-1c2.1-0.4,3.5-0.8,4.3-1.1V-64c0-0.9-0.2-1.5-0.6-1.8
		c-0.4-0.4-1.2-0.5-2.4-0.5c-0.8,0-1.4,0.2-1.9,0.5C-17.5-65.6-17.8-65.1-18.1-64.3z M-12.1-60.7c-0.6,0.2-1.5,0.4-2.7,0.7
		c-1.2,0.3-2,0.5-2.4,0.8c-0.6,0.4-0.9,0.9-0.9,1.6c0,0.6,0.2,1.2,0.7,1.6c0.5,0.5,1.1,0.7,1.8,0.7c0.8,0,1.6-0.3,2.3-0.8
		c0.5-0.4,0.9-0.9,1.1-1.5c0.1-0.4,0.2-1.1,0.2-2.2V-60.7z"/>
	<path class="st6" d="M-3.5-69.4h4.2v2.5C1.2-67.8,2-68.5,2.9-69c0.9-0.5,1.9-0.8,3.1-0.8c2,0,3.6,0.8,5,2.3c1.4,1.5,2,3.7,2,6.4
		c0,2.8-0.7,5-2.1,6.6c-1.4,1.6-3,2.3-5,2.3c-0.9,0-1.8-0.2-2.5-0.6s-1.6-1-2.4-1.9v8.5h-4.5V-69.4z M0.9-61.3
		c0,1.9,0.4,3.3,1.1,4.2c0.8,0.9,1.7,1.4,2.7,1.4c1,0,1.9-0.4,2.6-1.2c0.7-0.8,1-2.2,1-4.1c0-1.8-0.4-3.1-1.1-3.9
		c-0.7-0.9-1.6-1.3-2.6-1.3c-1.1,0-2,0.4-2.7,1.3C1.3-64.2,0.9-62.9,0.9-61.3z"/>
	<path class="st6" d="M16.5-71.7v-4.1H21v4.1H16.5z M16.5-52.6v-16.9H21v16.9H16.5z"/>
	<path class="st6" d="M41-52.6h-4.1V-55c-0.7,1-1.5,1.7-2.4,2.2c-0.9,0.5-1.9,0.7-2.8,0.7c-1.9,0-3.6-0.8-5-2.3
		c-1.4-1.6-2.1-3.7-2.1-6.5c0-2.9,0.7-5,2-6.5c1.3-1.5,3-2.2,5.1-2.2c1.9,0,3.5,0.8,4.9,2.3v-8.4H41V-52.6z M29.1-61.4
		c0,1.8,0.2,3.1,0.7,3.9c0.7,1.2,1.7,1.7,3,1.7c1,0,1.9-0.4,2.6-1.3c0.7-0.9,1.1-2.2,1.1-3.9c0-1.9-0.4-3.3-1-4.2
		c-0.7-0.9-1.6-1.3-2.7-1.3c-1.1,0-1.9,0.4-2.7,1.3C29.5-64.3,29.1-63,29.1-61.4z"/>
	<path class="st6" d="M48.8-64.3l-4-0.7c0.5-1.6,1.2-2.8,2.4-3.6c1.1-0.8,2.8-1.2,5-1.2c2,0,3.5,0.2,4.4,0.7c1,0.5,1.7,1.1,2.1,1.8
		c0.4,0.7,0.6,2.1,0.6,4l0,5.2c0,1.5,0.1,2.6,0.2,3.3c0.1,0.7,0.4,1.5,0.8,2.3h-4.4c-0.1-0.3-0.3-0.7-0.4-1.3
		c-0.1-0.3-0.1-0.4-0.2-0.5c-0.8,0.7-1.6,1.3-2.4,1.7c-0.9,0.4-1.8,0.6-2.8,0.6c-1.7,0-3.1-0.5-4.1-1.4c-1-0.9-1.5-2.1-1.5-3.6
		c0-1,0.2-1.8,0.7-2.5c0.5-0.7,1.1-1.3,1.9-1.7c0.8-0.4,2-0.7,3.5-1c2.1-0.4,3.5-0.8,4.3-1.1V-64c0-0.9-0.2-1.5-0.6-1.8
		c-0.4-0.4-1.2-0.5-2.4-0.5c-0.8,0-1.4,0.2-1.9,0.5C49.4-65.6,49-65.1,48.8-64.3z M54.7-60.7c-0.6,0.2-1.5,0.4-2.7,0.7
		c-1.2,0.3-2,0.5-2.4,0.8c-0.6,0.4-0.9,0.9-0.9,1.6c0,0.6,0.2,1.2,0.7,1.6c0.5,0.5,1.1,0.7,1.8,0.7c0.8,0,1.6-0.3,2.3-0.8
		c0.5-0.4,0.9-0.9,1.1-1.5c0.1-0.4,0.2-1.1,0.2-2.2V-60.7z"/>
	<path class="st6" d="M61.9-57.4l4.5-0.7c0.2,0.9,0.6,1.5,1.2,2c0.6,0.5,1.4,0.7,2.4,0.7c1.2,0,2-0.2,2.6-0.6
		c0.4-0.3,0.6-0.7,0.6-1.2c0-0.3-0.1-0.6-0.3-0.8c-0.2-0.2-0.7-0.4-1.5-0.6c-3.6-0.8-5.9-1.5-6.8-2.2c-1.3-0.9-2-2.2-2-3.8
		c0-1.5,0.6-2.7,1.7-3.7c1.2-1,2.9-1.5,5.4-1.5c2.3,0,4,0.4,5.1,1.1c1.1,0.8,1.9,1.9,2.3,3.3l-4.2,0.8c-0.2-0.7-0.5-1.2-1-1.5
		c-0.5-0.3-1.2-0.5-2.2-0.5c-1.2,0-2,0.2-2.5,0.5c-0.3,0.2-0.5,0.5-0.5,0.9c0,0.3,0.1,0.6,0.4,0.8c0.4,0.3,1.8,0.7,4.2,1.3
		c2.4,0.5,4,1.2,5,2c0.9,0.8,1.4,1.9,1.4,3.3c0,1.5-0.6,2.9-1.9,4c-1.3,1.1-3.2,1.7-5.7,1.7c-2.3,0-4.1-0.5-5.5-1.4
		C63.2-54.5,62.4-55.8,61.9-57.4z"/>
	<path class="st6" d="M106.1-52.6H102V-55c-0.7,1-1.5,1.7-2.4,2.2c-0.9,0.5-1.9,0.7-2.8,0.7c-1.9,0-3.6-0.8-5-2.3
		c-1.4-1.6-2.1-3.7-2.1-6.5c0-2.9,0.7-5,2-6.5c1.3-1.5,3-2.2,5.1-2.2c1.9,0,3.5,0.8,4.9,2.3v-8.4h4.5V-52.6z M94.2-61.4
		c0,1.8,0.2,3.1,0.7,3.9c0.7,1.2,1.7,1.7,3,1.7c1,0,1.9-0.4,2.6-1.3c0.7-0.9,1.1-2.2,1.1-3.9c0-1.9-0.4-3.3-1-4.2s-1.6-1.3-2.7-1.3
		c-1.1,0-1.9,0.4-2.7,1.3C94.5-64.3,94.2-63,94.2-61.4z"/>
	<path class="st6" d="M120.3-57.9l4.4,0.7c-0.6,1.6-1.5,2.9-2.7,3.7c-1.2,0.9-2.8,1.3-4.6,1.3c-2.9,0-5.1-1-6.5-2.9
		c-1.1-1.5-1.7-3.5-1.7-5.8c0-2.8,0.7-5,2.2-6.6c1.5-1.6,3.3-2.4,5.5-2.4c2.5,0,4.5,0.8,5.9,2.5s2.1,4.2,2.1,7.6h-11.2
		c0,1.3,0.4,2.4,1.1,3.1c0.7,0.7,1.5,1.1,2.6,1.1c0.7,0,1.3-0.2,1.8-0.6C119.7-56.5,120-57.1,120.3-57.9z M120.5-62.4
		c0-1.3-0.4-2.3-1-2.9c-0.6-0.7-1.4-1-2.3-1c-1,0-1.8,0.4-2.4,1.1c-0.6,0.7-0.9,1.7-0.9,2.9H120.5z"/>
	<path class="st6" d="M136.7-64.1c0-2.4,0.4-4.4,1.1-6c0.5-1.2,1.3-2.2,2.2-3.2c0.9-0.9,1.9-1.6,3-2.1c1.5-0.6,3.1-0.9,5-0.9
		c3.4,0,6.2,1.1,8.2,3.2c2.1,2.1,3.1,5.1,3.1,8.9c0,3.8-1,6.7-3.1,8.8s-4.8,3.2-8.2,3.2c-3.5,0-6.2-1.1-8.3-3.2
		C137.7-57.4,136.7-60.4,136.7-64.1z M141.5-64.2c0,2.6,0.6,4.6,1.8,6c1.2,1.4,2.8,2,4.6,2c1.9,0,3.4-0.7,4.6-2
		c1.2-1.4,1.8-3.4,1.8-6.1c0-2.7-0.6-4.7-1.8-6c-1.2-1.3-2.7-2-4.7-2c-1.9,0-3.5,0.7-4.7,2C142.1-68.9,141.5-66.9,141.5-64.2z"/>
	<path class="st6" d="M177.6-64.4l-4.4,0.8c-0.1-0.9-0.5-1.5-1-2c-0.5-0.4-1.2-0.7-2-0.7c-1.1,0-2,0.4-2.7,1.2c-0.7,0.8-1,2.1-1,3.9
		c0,2,0.3,3.4,1,4.2s1.6,1.2,2.7,1.2c0.8,0,1.5-0.2,2.1-0.7c0.5-0.5,0.9-1.3,1.1-2.5l4.4,0.7c-0.5,2-1.3,3.5-2.6,4.6
		c-1.3,1-3,1.5-5.2,1.5c-2.5,0-4.4-0.8-5.9-2.3s-2.2-3.7-2.2-6.5c0-2.8,0.7-5,2.2-6.5c1.5-1.6,3.5-2.3,6-2.3c2.1,0,3.7,0.4,4.9,1.3
		C176.2-67.6,177.1-66.2,177.6-64.4z"/>
	<path class="st6" d="M195.7-64.4l-4.4,0.8c-0.1-0.9-0.5-1.5-1-2c-0.5-0.4-1.2-0.7-2-0.7c-1.1,0-2,0.4-2.7,1.2c-0.7,0.8-1,2.1-1,3.9
		c0,2,0.3,3.4,1,4.2c0.7,0.8,1.6,1.2,2.7,1.2c0.8,0,1.5-0.2,2.1-0.7c0.5-0.5,0.9-1.3,1.1-2.5l4.4,0.7c-0.5,2-1.3,3.5-2.6,4.6
		c-1.3,1-3,1.5-5.2,1.5c-2.5,0-4.4-0.8-5.9-2.3S180-58.2,180-61c0-2.8,0.7-5,2.2-6.5c1.5-1.6,3.5-2.3,6-2.3c2.1,0,3.7,0.4,4.9,1.3
		S195.2-66.2,195.7-64.4z"/>
	<path class="st6" d="M199.1-71.7v-4.1h4.5v4.1H199.1z M199.1-52.6v-16.9h4.5v16.9H199.1z"/>
	<path class="st6" d="M223.6-52.6h-4.1V-55c-0.7,1-1.5,1.7-2.4,2.2c-0.9,0.5-1.9,0.7-2.8,0.7c-1.9,0-3.6-0.8-5-2.3
		c-1.4-1.6-2.1-3.7-2.1-6.5c0-2.9,0.7-5,2-6.5c1.3-1.5,3-2.2,5.1-2.2c1.9,0,3.5,0.8,4.9,2.3v-8.4h4.5V-52.6z M211.7-61.4
		c0,1.8,0.2,3.1,0.7,3.9c0.7,1.2,1.7,1.7,3,1.7c1,0,1.9-0.4,2.6-1.3c0.7-0.9,1.1-2.2,1.1-3.9c0-1.9-0.4-3.3-1-4.2
		c-0.7-0.9-1.6-1.3-2.7-1.3c-1.1,0-1.9,0.4-2.7,1.3C212-64.3,211.7-63,211.7-61.4z"/>
	<path class="st6" d="M237.8-57.9l4.4,0.7c-0.6,1.6-1.5,2.9-2.7,3.7c-1.2,0.9-2.8,1.3-4.6,1.3c-2.9,0-5.1-1-6.5-2.9
		c-1.1-1.5-1.7-3.5-1.7-5.8c0-2.8,0.7-5,2.2-6.6c1.5-1.6,3.3-2.4,5.5-2.4c2.5,0,4.5,0.8,5.9,2.5s2.1,4.2,2.1,7.6h-11.2
		c0,1.3,0.4,2.4,1.1,3.1c0.7,0.7,1.5,1.1,2.6,1.1c0.7,0,1.3-0.2,1.8-0.6C237.2-56.5,237.5-57.1,237.8-57.9z M238-62.4
		c0-1.3-0.4-2.3-1-2.9c-0.6-0.7-1.4-1-2.3-1c-1,0-1.8,0.4-2.4,1.1c-0.6,0.7-0.9,1.7-0.9,2.9H238z"/>
	<path class="st6" d="M261.4-52.6H257v-8.6c0-1.8-0.1-3-0.3-3.5c-0.2-0.5-0.5-0.9-0.9-1.2c-0.4-0.3-0.9-0.4-1.5-0.4
		c-0.8,0-1.5,0.2-2.1,0.6c-0.6,0.4-1,1-1.3,1.7c-0.2,0.7-0.3,2-0.3,3.9v7.6H246v-16.9h4.1v2.5c1.5-1.9,3.3-2.9,5.6-2.9
		c1,0,1.9,0.2,2.7,0.5c0.8,0.4,1.4,0.8,1.9,1.4c0.4,0.6,0.7,1.2,0.9,1.9c0.2,0.7,0.2,1.7,0.2,3V-52.6z"/>
	<path class="st6" d="M273.7-69.4v3.6h-3v6.8c0,1.4,0,2.2,0.1,2.4c0.1,0.2,0.2,0.4,0.4,0.6c0.2,0.1,0.5,0.2,0.8,0.2
		c0.4,0,1-0.1,1.8-0.4l0.4,3.5c-1,0.4-2.2,0.7-3.5,0.7c-0.8,0-1.5-0.1-2.2-0.4c-0.6-0.3-1.1-0.6-1.4-1c-0.3-0.4-0.5-1-0.6-1.7
		c-0.1-0.5-0.1-1.6-0.1-3.1v-7.4h-2v-3.6h2v-3.4l4.5-2.6v6H273.7z"/>
	<path class="st6" d="M286.5-57.9l4.4,0.7c-0.6,1.6-1.5,2.9-2.7,3.7c-1.2,0.9-2.8,1.3-4.6,1.3c-2.9,0-5.1-1-6.5-2.9
		c-1.1-1.5-1.7-3.5-1.7-5.8c0-2.8,0.7-5,2.2-6.6c1.5-1.6,3.3-2.4,5.5-2.4c2.5,0,4.5,0.8,5.9,2.5c1.5,1.7,2.1,4.2,2.1,7.6H280
		c0,1.3,0.4,2.4,1.1,3.1c0.7,0.7,1.5,1.1,2.6,1.1c0.7,0,1.3-0.2,1.8-0.6C285.9-56.5,286.3-57.1,286.5-57.9z M286.8-62.4
		c0-1.3-0.4-2.3-1-2.9c-0.6-0.7-1.4-1-2.3-1c-1,0-1.8,0.4-2.4,1.1c-0.6,0.7-0.9,1.7-0.9,2.9H286.8z"/>
</g>
</svg>
